<svg xmlns="http://www.w3.org/2000/svg" xmlns:xlink="http://www.w3.org/1999/xlink" viewBox="0 0 200 215.789">
  <defs>
    <path id="b-androidstudio" d="M101.333 50.667C101.333 22.687 78.647 0 50.667 0 22.687 0 0 22.687 0 50.667c0 15.386 6.867 29.16 17.693 38.446l-6.08 10.527V108a1.337 1.337 0 0 0 2.007 1.153l7.233-4.173 5.647-9.773c7.18 3.906 15.413 6.126 24.167 6.126 8.753 0 16.986-2.22 24.173-6.126l5.647 9.773 7.233 4.173A1.337 1.337 0 0 0 89.727 108v-8.36l-6.08-10.527c10.82-9.286 17.686-23.06 17.686-38.446z"/>
    <path id="d-androidstudio" d="M101.333 50.667C101.333 22.687 78.647 0 50.667 0 22.687 0 0 22.687 0 50.667c0 15.386 6.867 29.16 17.693 38.446l-6.08 10.527V108a1.337 1.337 0 0 0 2.007 1.153l7.233-4.173 5.647-9.773c7.18 3.906 15.413 6.126 24.167 6.126 8.753 0 16.986-2.22 24.173-6.126l5.647 9.773 7.233 4.173A1.337 1.337 0 0 0 89.727 108v-8.36l-6.08-10.527c10.82-9.286 17.686-23.06 17.686-38.446z"/>
    <path id="f-androidstudio" d="M101.333 50.667C101.333 22.687 78.647 0 50.667 0 22.687 0 0 22.687 0 50.667c0 15.386 6.867 29.16 17.693 38.446l-6.08 10.527V108a1.337 1.337 0 0 0 2.007 1.153l7.233-4.173 5.647-9.773c7.18 3.906 15.413 6.126 24.167 6.126 8.753 0 16.986-2.22 24.173-6.126l5.647 9.773 7.233 4.173A1.337 1.337 0 0 0 89.727 108v-8.36l-6.08-10.527c10.82-9.286 17.686-23.06 17.686-38.446z"/>
    <path id="h-androidstudio" d="M101.333 50.667C101.333 22.687 78.647 0 50.667 0 22.687 0 0 22.687 0 50.667c0 15.386 6.867 29.16 17.693 38.446l-6.08 10.527V108a1.337 1.337 0 0 0 2.007 1.153l7.233-4.173 5.647-9.773c7.18 3.906 15.413 6.126 24.167 6.126 8.753 0 16.986-2.22 24.173-6.126l5.647 9.773 7.233 4.173A1.337 1.337 0 0 0 89.727 108v-8.36l-6.08-10.527c10.82-9.286 17.686-23.06 17.686-38.446z"/>
    <path id="j-androidstudio" d="M101.333 50.667C101.333 22.687 78.647 0 50.667 0 22.687 0 0 22.687 0 50.667c0 15.386 6.867 29.16 17.693 38.446l-6.08 10.527V108a1.337 1.337 0 0 0 2.007 1.153l7.233-4.173 5.647-9.773c7.18 3.906 15.413 6.126 24.167 6.126 8.753 0 16.986-2.22 24.173-6.126l5.647 9.773 7.233 4.173A1.337 1.337 0 0 0 89.727 108v-8.36l-6.08-10.527c10.82-9.286 17.686-23.06 17.686-38.446z"/>
    <path id="l-androidstudio" d="M101.333 50.667C101.333 22.687 78.647 0 50.667 0 22.687 0 0 22.687 0 50.667c0 15.386 6.867 29.16 17.693 38.446l-6.08 10.527V108a1.337 1.337 0 0 0 2.007 1.153l7.233-4.173 5.647-9.773c7.18 3.906 15.413 6.126 24.167 6.126 8.753 0 16.986-2.22 24.173-6.126l5.647 9.773 7.233 4.173A1.337 1.337 0 0 0 89.727 108v-8.36l-6.08-10.527c10.82-9.286 17.686-23.06 17.686-38.446z"/>
    <path id="n-androidstudio" d="M101.333 50.667C101.333 22.687 78.647 0 50.667 0 22.687 0 0 22.687 0 50.667c0 15.386 6.867 29.16 17.693 38.446l-6.08 10.527V108a1.337 1.337 0 0 0 2.007 1.153l7.233-4.173 5.647-9.773c7.18 3.906 15.413 6.126 24.167 6.126 8.753 0 16.986-2.22 24.173-6.126l5.647 9.773 7.233 4.173A1.337 1.337 0 0 0 89.727 108v-8.36l-6.08-10.527c10.82-9.286 17.686-23.06 17.686-38.446z"/>
    <path id="q-androidstudio" d="M101.333 50.667C101.333 22.687 78.647 0 50.667 0 22.687 0 0 22.687 0 50.667c0 15.386 6.867 29.16 17.693 38.446l-6.08 10.527V108a1.337 1.337 0 0 0 2.007 1.153l7.233-4.173 5.647-9.773c7.18 3.906 15.413 6.126 24.167 6.126 8.753 0 16.986-2.22 24.173-6.126l5.647 9.773 7.233 4.173A1.337 1.337 0 0 0 89.727 108v-8.36l-6.08-10.527c10.82-9.286 17.686-23.06 17.686-38.446z"/>
    <path id="s-androidstudio" d="M101.333 50.667C101.333 22.687 78.647 0 50.667 0 22.687 0 0 22.687 0 50.667c0 15.386 6.867 29.16 17.693 38.446l-6.08 10.527V108a1.337 1.337 0 0 0 2.007 1.153l7.233-4.173 5.647-9.773c7.18 3.906 15.413 6.126 24.167 6.126 8.753 0 16.986-2.22 24.173-6.126l5.647 9.773 7.233 4.173A1.337 1.337 0 0 0 89.727 108v-8.36l-6.08-10.527c10.82-9.286 17.686-23.06 17.686-38.446z"/>
    <path id="u-androidstudio" d="M101.333 50.667C101.333 22.687 78.647 0 50.667 0 22.687 0 0 22.687 0 50.667c0 15.386 6.867 29.16 17.693 38.446l-6.08 10.527V108a1.337 1.337 0 0 0 2.007 1.153l7.233-4.173 5.647-9.773c7.18 3.906 15.413 6.126 24.167 6.126 8.753 0 16.986-2.22 24.173-6.126l5.647 9.773 7.233 4.173A1.337 1.337 0 0 0 89.727 108v-8.36l-6.08-10.527c10.82-9.286 17.686-23.06 17.686-38.446z"/>
    <path id="w-androidstudio" d="M101.333 50.667C101.333 22.687 78.647 0 50.667 0 22.687 0 0 22.687 0 50.667c0 15.386 6.867 29.16 17.693 38.446l-6.08 10.527V108a1.337 1.337 0 0 0 2.007 1.153l7.233-4.173 5.647-9.773c7.18 3.906 15.413 6.126 24.167 6.126 8.753 0 16.986-2.22 24.173-6.126l5.647 9.773 7.233 4.173A1.337 1.337 0 0 0 89.727 108v-8.36l-6.08-10.527c10.82-9.286 17.686-23.06 17.686-38.446z"/>
    <path id="y-androidstudio" d="M101.333 50.667C101.333 22.687 78.647 0 50.667 0 22.687 0 0 22.687 0 50.667c0 15.386 6.867 29.16 17.693 38.446l-6.08 10.527V108a1.337 1.337 0 0 0 2.007 1.153l7.233-4.173 5.647-9.773c7.18 3.906 15.413 6.126 24.167 6.126 8.753 0 16.986-2.22 24.173-6.126l5.647 9.773 7.233 4.173A1.337 1.337 0 0 0 89.727 108v-8.36l-6.08-10.527c10.82-9.286 17.686-23.06 17.686-38.446z"/>
    <path id="A-androidstudio" d="M101.333 50.667C101.333 22.687 78.647 0 50.667 0 22.687 0 0 22.687 0 50.667c0 15.386 6.867 29.16 17.693 38.446l-6.08 10.527V108a1.337 1.337 0 0 0 2.007 1.153l7.233-4.173 5.647-9.773c7.18 3.906 15.413 6.126 24.167 6.126 8.753 0 16.986-2.22 24.173-6.126l5.647 9.773 7.233 4.173A1.337 1.337 0 0 0 89.727 108v-8.36l-6.08-10.527c10.82-9.286 17.686-23.06 17.686-38.446z"/>
    <radialGradient id="a-androidstudio" cx="15.829" cy="14.563" r="124.733" fx="15.829" fy="14.563" gradientTransform="matrix(.96272 0 0 1.03872 152.89 3.82)" gradientUnits="userSpaceOnUse">
      <stop offset="0%" stop-color="#FFF" stop-opacity=".1"/>
      <stop offset="100%" stop-color="#FFF" stop-opacity="0"/>
    </radialGradient>
    <radialGradient xlink:href="#a-androidstudio" id="C-androidstudio" cx="15.829" cy="14.563" r="124.733" fx="15.829" fy="14.563" gradientTransform="matrix(.96272 0 0 1.03872 84.772 88.527)" gradientUnits="userSpaceOnUse"/>
    <linearGradient id="o-androidstudio" x1="39.405" x2="87.25" y1="65.114" y2="92.593" gradientTransform="scale(.98735 1.01282)" gradientUnits="userSpaceOnUse">
      <stop offset="0%" stop-color="#263238" stop-opacity=".2"/>
      <stop offset="100%" stop-color="#263238" stop-opacity=".02"/>
    </linearGradient>
  </defs>
  <g fill="none" fill-rule="evenodd" transform="matrix(1.97368 0 0 1.97368 0 0)">
    <mask id="c-androidstudio" fill="#fff">
      <use xlink:href="#b-androidstudio" width="100%" height="100%"/>
    </mask>
    <circle cx="50.667" cy="50.667" r="50.667" fill="#45EF8A" fill-rule="nonzero" mask="url(#c-androidstudio)"/>
  </g>
  <g fill="none" fill-rule="evenodd" transform="matrix(1.97368 0 0 1.97368 0 0)">
    <mask id="e-androidstudio" fill="#fff">
      <use xlink:href="#d-androidstudio" width="100%" height="100%"/>
    </mask>
    <path fill="#263238" fill-opacity=".2" fill-rule="nonzero" d="M50.667 100.667c27.76 0 50.293-22.327 50.646-50h.02c0 27.98-22.686 50.666-50.666 50.666C22.687 101.333 0 78.647 0 50.667h.02c.353 27.673 22.887 50 50.647 50Z" mask="url(#e-androidstudio)"/>
  </g>
  <g fill="none" fill-rule="evenodd" transform="matrix(1.97368 0 0 1.97368 0 0)">
    <mask id="g-androidstudio" fill="#fff">
      <use xlink:href="#f-androidstudio" width="100%" height="100%"/>
    </mask>
    <path fill="#3DDC84" fill-rule="nonzero" d="M50.667 0C22.687 0 0 22.687 0 50.667h101.333C101.333 22.687 78.647 0 50.667 0Z" mask="url(#g-androidstudio)"/>
  </g>
  <g fill="none" fill-rule="evenodd" transform="matrix(1.97368 0 0 1.97368 0 0)">
    <mask id="i-androidstudio" fill="#fff">
      <use xlink:href="#h-androidstudio" width="100%" height="100%"/>
    </mask>
    <circle cx="50.667" cy="42.667" r="6.667" fill="#3DDC84" fill-rule="nonzero" mask="url(#i-androidstudio)"/>
  </g>
  <g fill="none" fill-rule="evenodd" transform="matrix(1.97368 0 0 1.97368 0 0)">
    <mask id="k-androidstudio" fill="#fff">
      <use xlink:href="#j-androidstudio" width="100%" height="100%"/>
    </mask>
    <path fill="#263238" fill-opacity=".05" fill-rule="nonzero" d="M101.333 50.667H0V50h101.333z" mask="url(#k-androidstudio)"/>
  </g>
  <g fill="none" fill-rule="evenodd" transform="matrix(1.97368 0 0 1.97368 0 0)">
    <mask id="m-androidstudio" fill="#fff">
      <use xlink:href="#l-androidstudio" width="100%" height="100%"/>
    </mask>
    <path fill="#fff" fill-opacity=".05" fill-rule="nonzero" d="M101.333 51.333H0v-.666h101.333z" mask="url(#m-androidstudio)"/>
  </g>
  <g fill="none" fill-rule="evenodd" transform="matrix(1.97368 0 0 1.97368 0 0)">
    <mask id="p-androidstudio" fill="#fff">
      <use xlink:href="#n-androidstudio" width="100%" height="100%"/>
    </mask>
    <path fill="url(#o-androidstudio)" fill-rule="nonzero" d="m39.887 50.667-26.94 58.666h88.386V64L56 18.667l-10.667 8z" mask="url(#p-androidstudio)"/>
  </g>
  <g fill="none" fill-rule="evenodd" transform="matrix(1.97368 0 0 1.97368 0 0)">
    <mask id="r-androidstudio" fill="#fff">
      <use xlink:href="#q-androidstudio" width="100%" height="100%"/>
    </mask>
    <path fill="#fff" fill-opacity=".2" fill-rule="nonzero" d="M50.667.667c27.76 0 50.293 22.326 50.646 50h.02C101.333 22.687 78.647 0 50.667 0 22.687 0 0 22.687 0 50.667h.02c.353-27.674 22.887-50 50.647-50Z" mask="url(#r)"/>
  </g>
  <g fill="none" fill-rule="evenodd" transform="matrix(1.97368 0 0 1.97368 0 0)">
    <mask id="t-androidstudio" fill="#fff">
      <use xlink:href="#s-androidstudio" width="100%" height="100%"/>
    </mask>
    <g fill-rule="nonzero" mask="url(#t)">
      <path fill="#D7EFFE" d="M61.447 50.667h-12.32l31.36 54.313 7.233 4.173A1.337 1.337 0 0 0 89.727 108v-8.36z"/>
      <path fill="#BDBDBD" d="M61.447 50.667h-12.32l31.36 54.313 7.233 4.173A1.337 1.337 0 0 0 89.727 108v-8.36z" opacity=".3"/>
      <path fill="#fff" fill-opacity=".2" d="M89.72 99.64 61.446 50.666h-.386l28.66 49.64z"/>
      <path fill="#212121" fill-opacity=".1" d="M88.387 108.667c-.247 0-.474-.067-.674-.18l-7.233-4.174-30.967-53.646h-.386l31.36 54.313 7.233 4.173A1.337 1.337 0 0 0 89.727 108v-.667a1.347 1.347 0 0 1-1.34 1.334z"/>
    </g>
  </g>
  <g fill="none" fill-rule="evenodd" transform="matrix(1.97368 0 0 1.97368 0 0)">
    <mask id="v-androidstudio" fill="#fff">
      <use xlink:href="#u-androidstudio" width="100%" height="100%"/>
    </mask>
    <g fill-rule="nonzero" mask="url(#v)">
      <path fill="#D7EFFE" d="M77.333 50.667c0 14.726-11.94 26.666-26.666 26.666-4.38 0-8.514-1.06-12.16-2.933l12.16-21.067 1.54-2.666h-12.32L11.607 99.64V108a1.337 1.337 0 0 0 2.006 1.153l7.234-4.173 12.32-21.333A37.185 37.185 0 0 0 50.667 88C71.287 88 88 71.287 88 50.667Z"/>
      <path fill="#fff" fill-opacity=".4" d="M39.887 50.667 11.607 99.64v.667l28.666-49.64Zm10.78 26.666c-4.38 0-8.514-1.06-12.16-2.933v.667A26.536 26.536 0 0 0 50.667 78c14.726 0 26.666-11.94 26.666-26.667H87.98c.007-.22.02-.44.02-.666H77.333c0 14.726-11.94 26.666-26.666 26.666Z"/>
      <path fill="#212121" fill-opacity=".1" d="M52.207 50.667h-.387L38.5 73.733v.667zm35.773 0c-.36 20.306-16.92 36.666-37.313 36.666-6.327 0-12.28-1.58-17.5-4.353l-12.32 21.333-7.234 4.174a1.337 1.337 0 0 1-2.007-1.153V108a1.337 1.337 0 0 0 2.007 1.153l7.234-4.173 12.32-21.333A37.185 37.185 0 0 0 50.667 88C71.287 88 88 71.287 88 50.667Z"/>
    </g>
  </g>
  <g fill="none" fill-rule="evenodd" transform="matrix(1.97368 0 0 1.97368 0 0)">
    <mask id="x-androidstudio" fill="#fff">
      <use xlink:href="#w-androidstudio" width="100%" height="100%"/>
    </mask>
    <g mask="url(#x-androidstudio)">
      <path fill="#073042" fill-rule="nonzero" d="M62.667 26.667H56v-8H45.333v8h-6.666c-2.2 0-4 1.8-4 4v20l13.173 13.16A4.002 4.002 0 0 0 50.667 65a3.963 3.963 0 0 0 2.826-1.173l13.174-13.16v-20c0-2.2-1.8-4-4-4zm-12 22.666A6.67 6.67 0 0 1 44 42.667 6.67 6.67 0 0 1 50.667 36a6.67 6.67 0 0 1 6.666 6.667 6.67 6.67 0 0 1-6.666 6.666Z"/>
    </g>
  </g>
  <g fill="none" fill-rule="evenodd" transform="matrix(1.97368 0 0 1.97368 0 0)">
    <mask id="z-androidstudio" fill="#fff">
      <use xlink:href="#y-androidstudio" width="100%" height="100%"/>
    </mask>
    <path fill="#fff" fill-opacity=".1" fill-rule="nonzero" d="M62.667 26.667H56v.666h6.667c2.2 0 4 1.8 4 4v-.666c0-2.2-1.8-4-4-4zm-6.667-8H45.333v.666H56Zm-10.667 8h-6.666c-2.2 0-4 1.8-4 4v.666c0-2.2 1.8-4 4-4h6.666zm5.334 22.666A6.67 6.67 0 0 1 44 42.667v.666A6.67 6.67 0 0 0 50.667 50a6.67 6.67 0 0 0 6.666-6.667v-.666a6.67 6.67 0 0 1-6.666 6.666z" mask="url(#z)"/>
  </g>
  <g fill="none" fill-rule="evenodd" transform="matrix(1.97368 0 0 1.97368 0 0)">
    <mask id="B-androidstudio" fill="#fff">
      <use xlink:href="#A-androidstudio" width="100%" height="100%"/>
    </mask>
    <path fill="#212121" fill-opacity=".1" fill-rule="nonzero" d="M50.667 36a6.67 6.67 0 0 1 6.666 6.667V42a6.67 6.67 0 0 0-6.666-6.667A6.67 6.67 0 0 0 44 42v.667A6.67 6.67 0 0 1 50.667 36Zm2.826 27.16a4.002 4.002 0 0 1-2.826 1.173 3.963 3.963 0 0 1-2.827-1.173L34.667 50v.667l13.173 13.16A4.002 4.002 0 0 0 50.667 65a3.963 3.963 0 0 0 2.826-1.173l13.174-13.16V50Z" mask="url(#B)"/>
  </g>
  <path fill="url(#C-androidstudio)" d="M186.438 139.527c0-27.98-22.686-50.667-50.666-50.667-27.98 0-50.667 22.687-50.667 50.667 0 15.387 6.867 29.16 17.693 38.447l-6.08 10.526v8.36a1.337 1.337 0 0 0 2.007 1.154l7.233-4.174 5.647-9.773c7.18 3.907 15.413 6.127 24.167 6.127 8.753 0 16.986-2.22 24.173-6.127l5.647 9.773 7.233 4.174a1.337 1.337 0 0 0 2.007-1.153v-8.36l-6.08-10.527c10.82-9.287 17.686-23.06 17.686-38.447z" transform="matrix(1.97368 0 0 1.97368 -167.97 -175.382)"/>
</svg>
